<svg version="1.1" id="Layer_1" xmlns="http://www.w3.org/2000/svg" x="0" y="0" width="122.957" height="75.893" viewBox="0 0 122.957 75.893" xml:space="preserve"><path fill="#3E3B00" d="M35.643 53.228c0-.123.115-.223.243-.223h.32l5.554 6.21h.013v-5.852c0-.123.102-.234.242-.234h.82c.128 0 .244.11.244.233v8.326c0 .123-.117.222-.245.222h-.333l-5.554-6.383h-.012v6.023c0 .123-.103.235-.243.235h-.807c-.128 0-.243-.112-.243-.235v-8.325zM51.01 53.01c2.555.12 4.5 2.205 4.378 4.676-.124 2.473-2.27 4.342-4.825 4.22-2.557-.118-4.49-2.177-4.367-4.65.125-2.47 2.256-4.365 4.813-4.246m-.385 7.66c1.828.087 3.396-1.277 3.484-3.044.087-1.755-1.335-3.295-3.163-3.38-1.815-.086-3.385 1.314-3.473 3.07-.088 1.767 1.337 3.27 3.15 3.355M58.508 53.365c0-.124.103-.235.244-.235h3.48c1.536 0 2.79 1.176 2.79 2.647 0 1.138-.78 2.078-1.895 2.51l1.754 3.145c.09.16 0 .358-.218.358h-.997c-.103 0-.18-.062-.204-.11l-1.703-3.28h-1.932v3.156c0 .123-.115.234-.243.234h-.83c-.143 0-.245-.11-.245-.234v-8.19zm3.622 3.97c.832 0 1.562-.68 1.562-1.534 0-.802-.73-1.472-1.562-1.472h-2.278v3.008h2.278zM67.728 60.54c.115-.16.217-.346.332-.508.115-.16.293-.21.435-.098.077.06 1.062.853 2.048.853.883 0 1.446-.52 1.446-1.15 0-.742-.667-1.212-1.934-1.718-1.306-.534-2.328-1.19-2.328-2.624 0-.967.767-2.29 2.802-2.29 1.28 0 2.24.644 2.368.73.103.062.205.236.076.422-.103.148-.217.32-.32.47-.102.16-.268.235-.447.124-.09-.05-.984-.62-1.73-.62-1.073 0-1.444.656-1.444 1.114 0 .705.562 1.137 1.625 1.56 1.484.58 2.752 1.262 2.752 2.77 0 1.288-1.19 2.34-2.854 2.34-1.562 0-2.547-.793-2.752-.98-.115-.1-.205-.186-.076-.396M76.458 53.426c0-.16.128-.297.307-.297h.744c.163 0 .304.136.304.296v3.426l3.61-3.6c.05-.06.14-.123.242-.123h.96c.23 0 .358.26.18.444l-3.7 3.637 3.92 4.17c.1.124.036.41-.232.41H81.77c-.127 0-.205-.05-.23-.088l-3.725-4.058v3.848c0 .16-.14.297-.305.297h-.744c-.18 0-.307-.138-.307-.298v-8.066zM0 67.344c0-.125.115-.235.243-.235h.844c.14 0 .243.11.243.234v3.45h4.685v-3.45c0-.125.102-.235.243-.235h.844c.128 0 .243.11.243.234v8.19c0 .123-.115.235-.243.235h-.844c-.14 0-.243-.113-.243-.236V71.96H1.33v3.574c0 .123-.102.235-.243.235H.243c-.128 0-.243-.112-.243-.235v-8.19zM9.91 75.447l3.93-8.323.216-.14h.128l.218.14 3.903 8.323c.077.162-.025.322-.218.322h-.806c-.152 0-.242-.075-.293-.186l-.794-1.697h-4.185c-.256.57-.524 1.128-.78 1.697-.04.086-.14.185-.294.185h-.807c-.19 0-.294-.16-.217-.323m5.797-2.622l-1.574-3.39h-.064l-1.562 3.39h3.2zm-3.033-7.782c0-.768.627-1.373 1.42-1.373.78 0 1.42.605 1.42 1.373s-.64 1.373-1.42 1.373c-.793 0-1.42-.605-1.42-1.373m2.1 0c0-.36-.308-.656-.68-.656-.396 0-.716.297-.716.656 0 .358.308.692.717.692.37 0 .678-.333.678-.692M20.87 67.208c0-.123.114-.223.242-.223h.32l5.554 6.21h.012v-5.85c0-.126.103-.236.243-.236h.82c.13 0 .244.11.244.234v8.326c0 .123-.115.223-.243.223h-.332l-5.554-6.383h-.013v6.024c0 .123-.1.234-.242.234h-.806c-.128 0-.243-.11-.243-.234v-8.326zM32.07 67.344c0-.125.103-.235.23-.235h2.945c2.47 0 4.49 1.94 4.49 4.318 0 2.398-2.02 4.342-4.49 4.342H32.3c-.127 0-.23-.112-.23-.235v-8.19zm2.995 7.25c1.88 0 3.25-1.336 3.25-3.166 0-1.82-1.37-3.144-3.25-3.144h-1.69v6.31h1.69zM41.61 67.43c-.077-.16.026-.32.217-.32h.91c.1 0 .19.074.216.136l2.816 6.124h.075l2.815-6.124c.026-.062.103-.137.218-.137h.908c.19 0 .295.16.218.32l-3.93 8.326c-.038.074-.114.137-.216.137h-.13c-.09 0-.18-.062-.216-.137L41.61 67.43zM52.582 67.344c0-.125.103-.235.243-.235h5.117c.143 0 .244.11.244.234v.693c0 .124-.102.235-.244.235H53.9v2.522h3.417c.127 0 .242.112.242.235v.69c0 .138-.116.237-.243.237H53.9v2.66h4.042c.143 0 .244.11.244.234v.682c0 .123-.102.235-.244.235h-5.117c-.14 0-.243-.112-.243-.235v-8.188zM61.403 67.344c0-.123.102-.236.242-.236h3.48c1.536 0 2.79 1.177 2.79 2.65 0 1.137-.78 2.077-1.893 2.51l1.752 3.143c.09.162 0 .36-.217.36h-.997c-.104 0-.18-.063-.205-.112l-1.703-3.278H62.72v3.155c0 .123-.115.235-.244.235h-.83c-.142 0-.243-.112-.243-.235v-8.19zm3.622 3.97c.83 0 1.56-.68 1.56-1.532 0-.805-.73-1.473-1.56-1.473h-2.278v3.005h2.278zM71.197 67.407c0-.162.128-.297.307-.297h.744c.164 0 .305.135.305.297v3.426l3.61-3.6c.05-.062.14-.123.242-.123h.96c.23 0 .358.26.18.444l-3.7 3.64 3.917 4.166c.103.125.04.41-.23.41H76.51c-.128 0-.206-.05-.23-.088l-3.726-4.058v3.848c0 .16-.14.297-.305.297h-.745c-.18 0-.307-.137-.307-.298v-8.065zM80.043 74.52c.116-.16.218-.346.333-.508.115-.16.293-.21.434-.1.078.063 1.062.854 2.05.854.882 0 1.444-.52 1.444-1.15 0-.742-.666-1.21-1.932-1.72-1.307-.53-2.33-1.187-2.33-2.622 0-.965.768-2.29 2.804-2.29 1.28 0 2.24.645 2.367.73.103.063.205.236.077.423-.104.147-.217.32-.32.47-.102.16-.268.235-.447.122-.09-.05-.986-.618-1.73-.618-1.074 0-1.444.654-1.444 1.113 0 .705.562 1.138 1.624 1.56 1.483.58 2.752 1.26 2.752 2.77 0 1.287-1.19 2.338-2.854 2.338-1.562 0-2.548-.79-2.752-.98-.116-.096-.204-.182-.077-.393M89.748 67.17c.025-.098.128-.185.23-.185h.205l.217.136 2.674 6.322h.053l2.662-6.32c.024-.074.126-.137.215-.137h.205c.103 0 .205.087.23.185l1.575 8.313c.038.175-.052.286-.23.286h-.832c-.115 0-.217-.09-.244-.175l-.947-5.53h-.038l-2.304 5.69c-.025.076-.102.137-.218.137h-.23c-.1 0-.19-.06-.217-.136l-2.317-5.69h-.05l-.92 5.53c-.015.085-.13.173-.23.173h-.833c-.18 0-.27-.112-.244-.287l1.588-8.313zM99.978 75.447l3.93-8.323.217-.14h.13l.216.14 3.904 8.323c.077.162-.024.322-.218.322h-.807c-.154 0-.243-.075-.294-.186l-.793-1.696h-4.187c-.256.57-.524 1.127-.78 1.696-.04.086-.14.185-.293.185h-.808c-.192 0-.293-.16-.217-.323m5.798-2.622l-1.575-3.39h-.06l-1.563 3.39h3.2zM110.937 67.344c0-.125.102-.235.242-.235h.845c.127 0 .243.11.243.234v7.274h3.468c.14 0 .244.11.244.235v.68c0 .124-.104.236-.244.236h-4.557c-.142 0-.243-.113-.243-.236v-8.19zM119.296 68.272h-2.086c-.14 0-.243-.11-.243-.234v-.693c0-.123.103-.235.243-.235h5.503c.142 0 .243.112.243.235v.693c0 .123-.102.234-.243.234h-2.086v7.263c0 .123-.116.233-.243.233h-.845c-.13 0-.244-.11-.244-.233v-7.263zM102.595 0h-21.11C73.99 0 66.993 3.58 62.77 9.58c-.34.482-.784 1.207-1.293 2.087-.51-.887-.957-1.618-1.3-2.104C55.952 3.575 48.958 0 41.47 0H18.43V22.275c0 12.06 10.148 21.87 22.624 21.87h.418c.585 0 1.205-.028 1.943-.09H79.544c.738.062 1.357.09 1.942.09h.418c12.476 0 22.625-9.81 22.625-21.87V0h-1.935zm-61.54 42.276c-11.43 0-20.693-8.954-20.693-20V1.87h21.11c7.11 0 13.382 3.466 17.107 8.746.44.627 1.074 1.697 1.804 3.008-2.966 5.427-7.01 13.66-7.232 14.117l-.186.38v14.066l-11.912.09zm61.54-20.405v.405c0 11.047-9.265 20-20.692 20l-11.91-.09V28.123l-.187-.38c-.225-.458-4.264-8.686-7.232-14.118.727-1.305 1.355-2.37 1.794-2.994 3.724-5.288 10-8.76 17.117-8.76h21.11v20z"/><path fill="#FFF6E6" d="M41.47 1.87H20.363v20.405c0 11.046 9.264 20 20.692 20l11.91-.09V28.123l.187-.382c.226-.457 4.268-8.688 7.233-14.117-.73-1.31-1.36-2.38-1.805-3.007-3.724-5.28-9.996-8.747-17.107-8.747M102.595 1.87h-21.11c-7.116 0-13.394 3.472-17.117 8.76-.438.624-1.067 1.69-1.794 2.993 2.97 5.433 7.008 13.66 7.232 14.118l.187.38v14.066l11.91.09c11.428 0 20.692-8.955 20.692-20V1.87z"/><path fill="#FFD300" d="M61.48 15.63c-2.923 5.453-6.58 12.912-6.58 12.912v13.644h13.158V28.542s-3.656-7.456-6.58-12.91"/><path fill="#3E3B00" d="M61.434 29.23c-1.004 0-1.82-.79-1.82-1.76s.816-1.76 1.82-1.76c1.005 0 1.822.79 1.822 1.76s-.817 1.76-1.822 1.76m0-2.586c-.47 0-.854.37-.854.826 0 .456.384.827.854.827s.854-.37.854-.827c0-.455-.383-.826-.854-.826"/></svg>