<svg version="1.1" id="Layer_1" xmlns="http://www.w3.org/2000/svg" xmlns:xlink="http://www.w3.org/1999/xlink" x="0" y="0" width="205.929" height="109.228" viewBox="0.748 0.441 205.929 109.228" xml:space="preserve"><path fill="#3E3B00" d="M202.052 54.555v1c0 27.332-22.157 49.488-49.488 49.488l-28.488-.226V70.02l-.446-.938c-.536-1.133-10.197-21.49-17.3-34.93 1.738-3.23 3.243-5.862 4.295-7.407 8.905-13.084 23.92-21.677 40.94-21.677h50.487v49.487zm-147.19 50.488c-27.332 0-49.49-22.156-49.49-49.488V5.067h50.49c17.005 0 32.007 8.577 40.915 21.642 1.058 1.55 2.57 4.198 4.317 7.44C94 47.58 84.33 67.947 83.796 69.078l-.446.942v34.8l-28.488.223zM202.052.44h-50.488C133.636.44 116.9 9.3 106.8 24.14c-.813 1.196-1.874 2.992-3.088 5.17-1.223-2.194-2.293-4.004-3.113-5.208C90.495 9.287 73.77.442 55.86.442H.75v55.113c0 29.837 24.275 54.113 54.114 54.113h1c1.4 0 2.88-.07 4.648-.226H146.916c1.767.154 3.25.226 4.648.226h1c29.838 0 54.113-24.275 54.113-54.113V.44h-4.625z"/><defs><path id="SVGID_1_" d="M101.094 34.15c.828 1.54 1.708 3.21 2.618 4.97.912-1.762 1.79-3.432 2.618-4.97-.925-1.753-1.805-3.38-2.618-4.84-.812 1.458-1.692 3.087-2.618 4.84"/></defs><clipPath id="SVGID_2_"><use xlink:href="#SVGID_1_" overflow="visible"/></clipPath><path clip-path="url(#SVGID_2_)" fill="#1C1A00" d="M377.61 67.896h1.613v3.023h-1.613z"/><g><path fill="#FFF6E6" d="M55.86 5.067H5.374v50.488c0 27.332 22.157 49.488 49.488 49.488l28.49-.226V70.02l.445-.94c.536-1.133 10.205-21.5 17.3-34.93-1.747-3.24-3.26-5.89-4.318-7.44C87.87 13.645 72.867 5.067 55.86 5.067M202.052 5.067h-50.488c-17.02 0-32.034 8.594-40.94 21.678-1.05 1.545-2.556 4.18-4.293 7.405 7.103 13.44 16.764 33.798 17.3 34.93l.446.94v34.798l28.488.226c27.33 0 49.488-22.156 49.488-49.488V5.066z"/><path fill="#FFD300" d="M103.713 39.117C96.726 52.604 87.975 71.06 87.975 71.06v33.758h31.475V71.06s-8.745-18.447-15.737-31.943"/><path fill="#3E3B00" d="M103.607 66.365c-1.125 0-2.042.916-2.042 2.043s.917 2.045 2.042 2.045c1.127 0 2.044-.918 2.044-2.045s-.916-2.043-2.043-2.043m0 6.4c-2.4 0-4.354-1.954-4.354-4.355s1.953-4.355 4.354-4.355c2.403 0 4.357 1.954 4.357 4.355s-1.953 4.356-4.357 4.356"/></g><path fill="#3E3B00" d="M206.677 55.157v-.055.055z"/></svg>